<svg width="150" height="40" viewBox="0 0 150 40" fill="none" xmlns="http://www.w3.org/2000/svg">
  <style>
    .text {
      font-family: 'Manrope', sans-serif;
      font-weight: 800;
      font-size: 24px;
      fill: #2f4239;
    }
  </style>
  <g clip-path="url(#clip0_101_2)">
    <path d="M20 40C9 40 0 31 0 20S9 0 20 0s20 9 20 20-9 20-20 20zm0-35C11.7 5 5 11.7 5 20s6.7 15 15 15 15-6.7 15-15S28.3 5 20 5z" fill="#2f4239"/>
    <path d="M28.5 13.5l-11 11-5-5-3.5 3.5 8.5 8.5 14.5-14.5z" fill="#2f4239"/>
  </g>
  <text x="50" y="28" class="text">GreenCheck</text>
  <defs>
    <clipPath id="clip0_101_2">
      <path fill="#fff" d="M0 0h40v40H0z"/>
    </clipPath>
  </defs>
</svg>
