<svg width="32" height="32" viewBox="0 0 32 32" fill="none" xmlns="http://www.w3.org/2000/svg">
<path d="M16 2C8.268 2 2 8.268 2 16C2 23.732 8.268 30 16 30C23.732 30 30 23.732 30 16C30 8.268 23.732 2 16 2Z" fill="#4CAF50"/>
<path d="M15.9999 21.3333C18.9452 21.3333 21.3332 18.9453 21.3332 16C21.3332 13.0547 18.9452 10.6667 15.9999 10.6667C13.0546 10.6667 10.6666 13.0547 10.6666 16C10.6666 18.9453 13.0546 21.3333 15.9999 21.3333Z" fill="white"/>
<path d="M16 8V2M16 30V24M24 16H30M2 16H8" stroke="white" stroke-width="2" stroke-linecap="round" stroke-linejoin="round"/>
</svg>
